<svg width="80" height="80" viewBox="0 0 80 80" fill="none" xmlns="http://www.w3.org/2000/svg">
  <defs>
    <linearGradient id="grad3" x1="0%" y1="0%" x2="100%" y2="100%">
      <stop offset="0%" style="stop-color:#f093fb;stop-opacity:1" />
      <stop offset="100%" style="stop-color:#f5576c;stop-opacity:1" />
    </linearGradient>
  </defs>
  <rect width="80" height="80" rx="10" fill="url(#grad3)"/>
  <g transform="translate(15,15)">
    <!-- Group of people -->
    <circle cx="15" cy="15" r="8" fill="white" opacity="0.9"/>
    <circle cx="10" cy="25" r="6" fill="white" opacity="0.7"/>
    <circle cx="20" cy="25" r="6" fill="white" opacity="0.7"/>
    <!-- Connection lines -->
    <line x1="15" y1="23" x2="10" y2="19" stroke="white" stroke-width="2" opacity="0.6"/>
    <line x1="15" y1="23" x2="20" y2="19" stroke="white" stroke-width="2" opacity="0.6"/>
    <!-- Hearts -->
    <path d="M25 10C25 8 23 6 21 6C19 6 17 8 17 10C17 8 15 6 13 6C11 6 9 8 9 10C9 12 13 16 17 20C21 16 25 12 25 10Z" fill="white" opacity="0.6" transform="scale(0.5) translate(20,5)"/>
  </g>
</svg> 