<svg width="80" height="80" viewBox="0 0 80 80" fill="none" xmlns="http://www.w3.org/2000/svg">
  <defs>
    <linearGradient id="gradPremium" x1="0%" y1="0%" x2="100%" y2="100%">
      <stop offset="0%" style="stop-color:#fbbf24;stop-opacity:1" />
      <stop offset="100%" style="stop-color:#f59e0b;stop-opacity:1" />
    </linearGradient>
  </defs>
  <rect width="80" height="80" rx="10" fill="url(#gradPremium)"/>
  <g transform="translate(10,10)">
    <!-- Premium crown -->
    <path d="M30 35L26 15L20 22L15 15L10 22L4 15L0 35H30Z" fill="white" opacity="0.9"/>
    <rect x="-2" y="35" width="34" height="6" rx="3" fill="white"/>
    <!-- Jewels -->
    <circle cx="8" cy="25" r="2" fill="white" opacity="0.8"/>
    <circle cx="15" cy="22" r="2" fill="white" opacity="0.8"/>
    <circle cx="22" cy="25" r="2" fill="white" opacity="0.8"/>
    <!-- Stars -->
    <path d="M35 10L37 16L43 16L38 20L40 26L35 22L30 26L32 20L27 16L33 16Z" fill="white" opacity="0.7" transform="scale(0.3) translate(40,0)"/>
    <path d="M35 10L37 16L43 16L38 20L40 26L35 22L30 26L32 20L27 16L33 16Z" fill="white" opacity="0.5" transform="scale(0.2) translate(80,30)"/>
    <path d="M35 10L37 16L43 16L38 20L40 26L35 22L30 26L32 20L27 16L33 16Z" fill="white" opacity="0.6" transform="scale(0.25) translate(-20,50)"/>
  </g>
</svg> 